<?xml version="1.0" encoding="UTF-8" standalone="no"?> <svg xmlns="http://www.w3.org/2000/svg" viewBox="0 0 48.14 38.93"><defs><style>.cls-1{fill:none;stroke:#333;stroke-linecap:round;stroke-linejoin:round;stroke-width:2px;}</style></defs><title>Asset 3</title><g id="Layer_2" data-name="Layer 2"><g id="Layer_2-2" data-name="Layer 2"><path class="cls-1" d="M47.14,37.93A23.57,23.57,0,0,0,1,37.93Z"/><path class="cls-1" d="M28.47,19.6A23.41,23.41,0,0,0,9.79,37.93H47.14A23.39,23.39,0,0,0,28.47,19.6Z"/><path class="cls-1" d="M34.33,21.53a23.2,23.2,0,0,0-12.81,16.4H47.14A23.2,23.2,0,0,0,34.33,21.53Z"/><path class="cls-1" d="M40.19,25.54a22.71,22.71,0,0,0-6.94,12.39H47.14A22.72,22.72,0,0,0,40.19,25.54Z"/><path class="cls-1" d="M24.07,19.18a23.88,23.88,0,0,1,5.71.71,7.57,7.57,0,1,0-11.42,0A23.88,23.88,0,0,1,24.07,19.18Z"/><line class="cls-1" x1="23.64" y1="2.93" x2="23.64" y2="1.93"/><line class="cls-1" x1="18.83" y1="3.75" x2="17.63" y2="1"/><line class="cls-1" x1="14.81" y1="6.49" x2="13.89" y2="5.63"/><line class="cls-1" x1="12.05" y1="10.5" x2="9.23" y2="9.49"/><line class="cls-1" x1="11.21" y1="15.31" x2="9.71" y2="15.41"/><line class="cls-1" x1="28.46" y1="3.75" x2="29.65" y2="1"/><line class="cls-1" x1="32.47" y1="6.49" x2="33.39" y2="5.63"/><line class="cls-1" x1="35.23" y1="10.5" x2="38.06" y2="9.49"/><line class="cls-1" x1="36.07" y1="15.31" x2="37.58" y2="15.41"/></g></g></svg>