<?xml version="1.0" encoding="UTF-8" standalone="no"?> <svg xmlns="http://www.w3.org/2000/svg" viewBox="0 0 45.24 42.25"><defs><style>.cls-1{fill:none;stroke:#333;stroke-linecap:round;stroke-linejoin:round;stroke-width:2px;}</style></defs><title>Asset 13</title><g id="Layer_2" data-name="Layer 2"><g id="Layer_2-2" data-name="Layer 2"><circle class="cls-1" cx="7.82" cy="34.43" r="6.82"/><circle class="cls-1" cx="7.82" cy="34.43" r="2.59"/><circle class="cls-1" cx="33.32" cy="31.02" r="10.23"/><circle class="cls-1" cx="33.32" cy="31.02" r="5.6"/><path class="cls-1" d="M22.36,22.77a13.73,13.73,0,0,1,21.88-.05"/><line class="cls-1" x1="23.09" y1="33.34" x2="14.55" y2="33.34"/><path class="cls-1" d="M4.82,28.32,8.09,17.5c.53-1.81,1.53-3.41,3.41-3.41H37.55V18"/><path class="cls-1" d="M36.46,1H22.55a1.09,1.09,0,0,0-1.05.8L18.08,14.09H37.55v-12A1.09,1.09,0,0,0,36.46,1Z"/><polyline class="cls-1" points="22.42 13.32 24.86 4.25 33.61 4.25 33.61 13.25"/></g></g></svg>