<?xml version="1.0" standalone="no"?>
<!DOCTYPE svg PUBLIC "-//W3C//DTD SVG 20010904//EN"
 "http://www.w3.org/TR/2001/REC-SVG-20010904/DTD/svg10.dtd">
<svg version="1.0" xmlns="http://www.w3.org/2000/svg"
 width="900.000000pt" height="640.000000pt" viewBox="0 0 900.000000 640.000000"
 preserveAspectRatio="xMidYMid meet">
<metadata>
Created by potrace 1.16, written by Peter Selinger 2001-2019
</metadata>
<g transform="translate(0.000000,640.000000) scale(0.100000,-0.100000)"
fill="#000000" stroke="none">
<path d="M910 6379 c-348 -33 -923 -181 -908 -232 7 -21 90 -54 242 -96 717
-197 1504 -186 2152 30 118 39 168 69 148 88 -15 14 -190 68 -374 115 -182 46
-389 79 -595 96 -141 11 -543 11 -665 -1z"/>
<path d="M7362 6380 c-347 -36 -903 -173 -919 -226 -9 -30 306 -129 587 -183
342 -67 847 -77 1225 -25 289 40 703 150 730 194 17 28 -44 57 -231 111 -321
93 -597 129 -1009 134 -165 2 -337 0 -383 -5z"/>
<path d="M7617 5723 c-4 -3 -7 -138 -7 -300 l0 -293 -3115 0 -3115 0 0 280 0
280 -105 0 -105 0 0 -279 0 -280 -53 -10 c-104 -22 -185 -86 -223 -177 -50
-116 16 -436 123 -597 75 -114 187 -178 285 -163 100 15 210 115 278 252 46
93 78 235 86 374 l7 120 1209 0 1209 0 -3 -101 -3 -101 -240 -129 -240 -128
-3 -200 -2 -201 895 0 895 0 -2 201 -3 201 -242 130 -243 130 0 99 0 99 1210
0 1210 0 0 -45 c0 -25 5 -89 11 -142 45 -402 272 -642 501 -530 142 69 250
284 280 552 15 137 -1 195 -76 271 -46 45 -65 56 -132 77 l-79 24 -3 296 -2
297 -98 0 c-54 0 -102 -3 -105 -7z"/>
<path d="M3891 3818 c-56 -38 -76 -73 -76 -132 0 -67 35 -117 98 -141 154 -58
272 139 153 255 -29 27 -45 34 -88 38 -44 3 -59 0 -87 -20z"/>
<path d="M4255 3821 c-95 -59 -116 -146 -54 -225 83 -106 261 -50 276 88 5 39
2 47 -33 85 -65 72 -129 90 -189 52z"/>
<path d="M4604 3821 c-81 -49 -105 -129 -61 -206 70 -125 265 -82 284 63 7 51
-20 97 -81 136 -48 31 -99 34 -142 7z"/>
<path d="M4954 3821 c-77 -47 -100 -122 -62 -199 29 -58 74 -86 140 -86 54 0
89 21 126 75 19 28 23 44 20 85 -5 58 -28 94 -79 123 -46 26 -104 27 -145 2z"/>
<path d="M4195 3315 c-105 -37 -146 -174 -78 -256 35 -41 74 -59 130 -59 65 0
112 27 140 80 51 96 10 197 -96 235 -51 18 -46 18 -96 0z"/>
<path d="M4665 3297 c-80 -44 -104 -144 -54 -225 32 -53 74 -74 144 -70 104 6
162 70 153 169 -12 120 -137 185 -243 126z"/>
<path d="M3689 3291 c-64 -20 -93 -54 -110 -131 -25 -107 86 -209 196 -179 57
16 82 36 106 86 26 53 22 107 -11 153 -37 51 -127 87 -181 71z"/>
<path d="M5216 3290 c-39 -12 -85 -57 -107 -105 -24 -51 -24 -69 1 -120 51
-105 213 -119 281 -24 54 77 24 193 -61 237 -47 23 -67 26 -114 12z"/>
<path d="M4095 2782 c-17 -10 -45 -35 -63 -56 -29 -33 -32 -43 -32 -101 0 -57
3 -68 30 -99 56 -64 141 -90 207 -65 34 13 80 55 99 91 18 35 18 101 0 136
-16 31 -71 84 -103 101 -33 17 -104 13 -138 -7z"/>
<path d="M4744 2790 c-30 -12 -80 -73 -94 -115 -35 -105 53 -225 165 -225 73
0 168 76 181 145 19 105 -71 206 -183 204 -26 0 -57 -4 -69 -9z"/>
<path d="M3430 2731 c-53 -28 -92 -88 -92 -143 0 -56 20 -95 68 -138 36 -31
39 -32 111 -28 71 3 77 5 108 40 39 42 59 105 50 151 -23 109 -149 170 -245
118z"/>
<path d="M5400 2728 c-90 -61 -109 -165 -47 -252 53 -75 207 -76 265 -1 69 87
42 204 -59 255 -52 27 -117 26 -159 -2z"/>
<path d="M4033 2268 c-112 -53 -154 -185 -92 -284 57 -94 243 -97 307 -7 22
31 45 112 38 135 -2 7 -7 25 -10 40 -13 61 -116 139 -179 138 -12 -1 -41 -10
-64 -22z"/>
<path d="M4826 2270 c-79 -40 -116 -94 -116 -168 0 -112 74 -192 178 -192 116
0 185 64 186 173 1 81 -25 132 -86 170 -61 38 -112 43 -162 17z"/>
<path d="M3215 2192 c-22 -11 -55 -36 -74 -56 -30 -31 -35 -44 -38 -93 -5 -74
17 -117 80 -156 63 -40 114 -45 171 -17 92 44 131 173 77 252 -53 76 -141 105
-216 70z"/>
<path d="M5656 2196 c-90 -33 -134 -116 -114 -212 25 -114 169 -168 270 -100
110 73 100 245 -17 300 -51 25 -94 28 -139 12z"/>
<path d="M3978 1763 c-32 -5 -113 -74 -133 -114 -9 -16 -15 -55 -15 -91 0 -74
23 -117 89 -162 103 -72 245 -24 297 100 58 140 -77 291 -238 267z"/>
<path d="M4933 1760 c-75 -15 -115 -44 -145 -105 -68 -136 30 -295 182 -295
46 0 92 20 133 59 45 41 57 73 57 151 l0 71 -51 55 c-33 34 -65 57 -88 64 -20
5 -38 9 -41 9 -3 -1 -24 -5 -47 -9z"/>
<path d="M2963 1641 c-75 -35 -120 -135 -94 -213 14 -42 75 -106 118 -124 41
-18 95 -18 136 0 62 25 117 112 117 181 0 11 -9 38 -19 60 -47 101 -157 142
-258 96z"/>
<path d="M5876 1650 c-34 -11 -82 -54 -102 -92 -20 -39 -18 -122 6 -167 51
-101 183 -132 268 -64 105 84 109 215 11 295 -27 21 -48 29 -94 33 -33 2 -73
0 -89 -5z"/>
<path d="M3881 1156 c-82 -27 -134 -97 -134 -181 0 -111 82 -195 188 -195 63
0 105 20 147 69 67 78 71 159 13 243 -45 66 -130 91 -214 64z"/>
<path d="M4998 1161 c-49 -16 -85 -43 -112 -84 -74 -116 11 -281 152 -295 67
-6 114 11 156 58 85 94 67 234 -38 295 -47 28 -117 39 -158 26z"/>
<path d="M2763 1111 c-77 -19 -122 -78 -130 -170 -7 -73 12 -116 76 -172 l46
-41 67 5 c36 3 79 12 95 20 59 31 94 95 96 176 2 49 -2 63 -26 94 -53 69 -149
107 -224 88z"/>
<path d="M6119 1106 c-45 -16 -84 -46 -116 -89 -22 -28 -24 -40 -20 -99 8
-119 66 -175 193 -186 61 -5 62 -4 109 39 60 55 75 86 75 151 -1 92 -42 157
-117 184 -48 17 -78 17 -124 0z"/>
<path d="M2555 571 c-133 -33 -201 -167 -146 -286 36 -78 95 -115 183 -115
103 0 188 74 204 176 19 128 -117 255 -241 225z"/>
<path d="M6330 564 c-78 -34 -130 -111 -130 -194 0 -65 18 -108 63 -147 120
-105 294 -50 337 109 22 80 -34 184 -123 227 -51 25 -98 26 -147 5z"/>
</g>
</svg>
